<svg width="30" height="30" viewBox="0 0 30 30" fill="none" xmlns="http://www.w3.org/2000/svg">
<path fill-rule="evenodd" clip-rule="evenodd" d="M0 15C0 6.71573 6.71573 0 15 0C18.9782 0 22.7936 1.58035 25.6066 4.3934C28.4196 7.20644 30 11.0218 30 15C30 23.2843 23.2843 30 15 30C6.71573 30 0 23.2843 0 15ZM19.035 24C21.7737 23.9918 23.9918 21.7737 24 19.035V10.965C23.9918 8.22633 21.7737 6.00824 19.035 6H10.965C8.22633 6.00824 6.00824 8.22633 6 10.965V19.035C6.00824 21.7737 8.22633 23.9918 10.965 24H19.035ZM15 12C13.3431 12 12 13.3431 12 15C12 16.6569 13.3431 18 15 18C16.6569 18 18 16.6569 18 15C18 13.3431 16.6569 12 15 12ZM19.035 7.59C20.899 7.59 22.41 9.10104 22.41 10.965V19.035C22.41 20.899 20.899 22.41 19.035 22.41H10.965C9.10104 22.41 7.59 20.899 7.59 19.035V10.965C7.59 9.10104 9.10104 7.59 10.965 7.59H19.035ZM10.365 15C10.365 17.5598 12.4402 19.635 15 19.635C16.2293 19.635 17.4082 19.1467 18.2774 18.2774C19.1467 17.4082 19.635 16.2293 19.635 15C19.635 12.4402 17.5598 10.365 15 10.365C12.4402 10.365 10.365 12.4402 10.365 15ZM20.655 11.01C20.4356 11.2283 20.1395 11.3522 19.83 11.355C19.5218 11.3461 19.2278 11.2232 19.005 11.01C18.7824 10.7902 18.6571 10.4904 18.6571 10.1775C18.6571 9.86465 18.7824 9.56483 19.005 9.345C19.227 9.13057 19.5215 9.00742 19.83 9C20.3018 9.00186 20.7263 9.2869 20.9066 9.72288C21.0869 10.1589 20.9877 10.6605 20.655 10.995V11.01Z" fill="white"/>
</svg>
