<svg width="30" height="30" viewBox="0 0 30 30" fill="none" xmlns="http://www.w3.org/2000/svg">
<path fill-rule="evenodd" clip-rule="evenodd" d="M15 30C23.2843 30 30 23.2843 30 15C30 6.71573 23.2843 0 15 0C6.71573 0 0 6.71573 0 15C0 23.2843 6.71573 30 15 30ZM7.77254 22.4996H11.1933V11.4837H7.77254V22.4996ZM7.5 7.9811C7.5 9.07497 8.38724 9.98099 9.4811 9.98099C10.5746 9.98099 11.4622 9.07497 11.4622 7.9811C11.4622 7.45568 11.2535 6.95178 10.882 6.58025C10.5104 6.20872 10.0065 6 9.4811 6C8.95568 6 8.45178 6.20872 8.08025 6.58025C7.70872 6.95178 7.5 7.45568 7.5 7.9811ZM20.5829 22.4996H23.9963H24V16.4484C24 13.4872 23.3636 11.2074 19.9015 11.2074C18.2372 11.2074 17.1216 12.1208 16.6649 12.9864H16.617V11.4837H13.3361V22.4996H16.7533V17.0451C16.7533 15.6087 17.0258 14.2202 18.8043 14.2202C20.5571 14.2202 20.5829 15.8591 20.5829 17.1371V22.4996Z" fill="white"/>
</svg>
