<svg width="30" height="30" viewBox="0 0 30 30" fill="none" xmlns="http://www.w3.org/2000/svg">
<path d="M12.96 17.985L18.18 15.015L12.96 12.045V17.985Z" fill="white"/>
<path d="M15 0C6.72 0 0 6.72 0 15C0 23.28 6.72 30 15 30C23.28 30 30 23.28 30 15C30 6.72 23.28 0 15 0ZM24.57 19.86C24.345 20.73 23.67 21.375 22.8 21.615C21.24 22.035 14.985 22.035 14.985 22.035C14.985 22.035 8.73 22.035 7.17 21.615C6.315 21.39 5.64 20.73 5.4 19.86C4.98 18.285 4.98 15.015 4.98 15.015C4.98 15.015 4.98 11.745 5.4 10.17C5.625 9.3 6.3 8.625 7.17 8.385C8.73 7.965 14.985 7.965 14.985 7.965C14.985 7.965 21.24 7.965 22.8 8.385C23.655 8.61 24.33 9.3 24.57 10.17C24.99 11.745 24.99 15.015 24.99 15.015C24.99 15.015 24.99 18.285 24.57 19.86Z" fill="white"/>
</svg>
